<?xml version="1.0" encoding="utf-8"?>
<!-- Generator: Adobe Illustrator 23.0.5, SVG Export Plug-In . SVG Version: 6.00 Build 0)  -->
<svg version="1.1" id="Capa_1" xmlns="http://www.w3.org/2000/svg" xmlns:xlink="http://www.w3.org/1999/xlink" x="0px" y="0px"
	 viewBox="0 0 580 580" style="enable-background:new 0 0 580 580;" xml:space="preserve">
<style type="text/css">
	.st0{fill:#166193;}
	.st1{fill:#FFFFFF;}
	.st2{clip-path:url(#SVGID_2_);fill:#FFFFFF;}
	.st3{clip-path:url(#SVGID_2_);fill:#1D1E1C;}
	.st4{clip-path:url(#SVGID_2_);fill:#37A6DE;}
	.st5{clip-path:url(#SVGID_2_);fill:#FDEA14;}
	.st6{clip-path:url(#SVGID_2_);fill:#166193;}
	.st7{fill:#585856;}
	.st8{fill:#37A6DE;}
	.st9{fill:none;stroke:#1D1E1C;stroke-miterlimit:10;}
</style>
<g>
	<path class="st0" d="M554.35,247.66h-13.1c-6.54-38.74-21.89-74.48-43.93-105.09l9.55-9.55c3.91-3.91,3.91-10.24,0-14.15
		l-45.74-45.74c-3.91-3.91-10.24-3.91-14.15,0l-9.92,9.92c-30.62-21.47-66.21-36.32-104.71-42.46V25.65c0-5.52-4.48-10-10-10h-64.68
		c-5.52,0-10,4.48-10,10v15.68c-37.89,6.74-72.85,21.94-102.88,43.57l-11.76-11.76c-3.91-3.91-10.24-3.91-14.15,0l-45.74,45.74
		c-3.91,3.91-3.91,10.24,0,14.15l12.13,12.13C64.21,175.18,49.52,210,43.17,247.66H25.65c-5.52,0-10,4.48-10,10v64.68
		c0,5.52,4.48,10,10,10h17.52c6.36,37.66,21.04,72.48,42.1,102.51l-12.13,12.13c-3.91,3.91-3.91,10.24,0,14.15l45.74,45.74
		c3.91,3.91,10.24,3.91,14.15,0l11.76-11.76c30.03,21.62,64.99,36.82,102.88,43.57v15.68c0,5.52,4.48,10,10,10h64.68
		c5.52,0,10-4.48,10-10V539.4c38.5-6.15,74.1-20.99,104.71-42.46l9.92,9.92c3.91,3.91,10.24,3.91,14.15,0l45.74-45.74
		c3.91-3.91,3.91-10.24,0-14.15l-9.55-9.55c22.04-30.61,37.39-66.35,43.93-105.09h13.1c5.52,0,10-4.48,10-10v-64.68
		C564.35,252.13,559.87,247.66,554.35,247.66z"/>
	<circle class="st1" cx="290.76" cy="290" r="232.19"/>
	<g>
		<defs>
			<circle id="SVGID_1_" cx="291.14" cy="290.28" r="164.27"/>
		</defs>
		<use xlink:href="#SVGID_1_"  style="overflow:visible;fill:#37A6DE;"/>
		<clipPath id="SVGID_2_">
			<use xlink:href="#SVGID_1_"  style="overflow:visible;"/>
		</clipPath>
		<circle class="st2" cx="290.86" cy="289.9" r="136.96"/>
		<path class="st3" d="M291.14,457.15c-92.21,0-167.23-75.02-167.23-167.23c0-92.21,75.02-167.23,167.23-167.23
			c92.21,0,167.23,75.02,167.23,167.23C458.37,382.13,383.35,457.15,291.14,457.15z M291.14,124.53c-91.2,0-165.4,74.2-165.4,165.39
			s74.2,165.4,165.4,165.4c91.2,0,165.4-74.2,165.4-165.4S382.34,124.53,291.14,124.53z"/>
		<circle class="st4" cx="291.58" cy="289.15" r="109.56"/>
		<circle class="st5" cx="290.05" cy="289.92" r="81.92"/>
		<path class="st4" d="M494.5,397.01c-54.57-41.3-109.13-82.61-163.7-123.91c0,95.49,0,190.99,0,286.48c54.57,0,109.13,0,163.7,0
			C494.5,505.39,494.5,451.2,494.5,397.01z"/>
		<polygon class="st4" points="193.94,331.05 170.99,314.04 170.99,343.85 		"/>
		<polygon class="st4" points="274.03,309.02 251.06,291.8 251.06,321.97 		"/>
		<ellipse class="st6" cx="371.77" cy="371.63" rx="13.66" ry="20.11"/>
		<path class="st6" d="M251.06,321.77l0.01-29.96L171,343.85l0-29.81L38.6,396.29l0.04-31.02l-97.51,51.84c0,54.95,0,89.07,0,144.01
			c129.89-0.76,259.78-1.52,389.67-2.27c0-95.25,0-190.5,0-285.75L251.06,321.77z"/>
	</g>
	<g>
		<path class="st7" d="M111,310.69c0.52,0.38,1.03,0.96,1.55,1.74c0.52,0.79,0.88,1.8,1.07,3.05c0.55,3.5-0.67,6.4-3.66,8.68
			c-2.99,2.28-7.62,3.91-13.88,4.9c-6.26,0.98-11.17,0.85-14.71-0.4c-3.54-1.25-5.59-3.63-6.14-7.14c-0.19-1.19-0.16-2.25,0.09-3.19
			c0.25-0.94,0.56-1.66,0.94-2.18l3.66,0.61c-0.24,0.4-0.42,0.93-0.53,1.57c-0.11,0.64-0.12,1.26-0.03,1.85
			c0.33,2.08,1.81,3.44,4.45,4.07c2.64,0.64,6.43,0.56,11.35-0.21c4.9-0.77,8.52-1.86,10.85-3.28c2.33-1.42,3.34-3.16,3.01-5.24
			c-0.11-0.68-0.31-1.29-0.61-1.82c-0.3-0.53-0.62-0.95-0.97-1.26L111,310.69z"/>
		<path class="st7" d="M112.1,307.23l-37.81,2.23l-0.76-12.83l3.96-0.23l0.47,7.92l12.51-0.74l-0.42-7.07l3.96-0.23l0.42,7.07
			l13.28-0.78l-0.47-7.92l4.1-0.24L112.1,307.23z"/>
		<path class="st7" d="M112.01,275.04l-25.76,8.46c-0.49,0.18-0.98,0.34-1.47,0.46c-0.49,0.12-0.93,0.23-1.33,0.33
			c-0.46,0.1-0.9,0.21-1.33,0.33l-0.01,0.09c0.42,0.02,0.87,0.03,1.35,0.03c0.42,0.02,0.87,0.04,1.35,0.05
			c0.48,0.01,0.96,0.03,1.44,0.06l25.12,1.39l-0.23,4.1l-37.81-2.09l0.25-4.5l24.56-8.03c0.49-0.15,0.97-0.29,1.45-0.42
			c0.47-0.12,0.91-0.25,1.31-0.38c0.46-0.09,0.9-0.21,1.33-0.33l0-0.09c-0.42,0.01-0.87,0-1.35-0.03c-0.39,0.01-0.83,0-1.31-0.03
			c-0.48-0.03-0.96-0.05-1.44-0.08l-23.95-1.32l0.23-4.1l37.82,2.09L112.01,275.04z"/>
		<path class="st7" d="M81.08,251.76l33.4,5.81l-0.85,4.89l-33.4-5.81l-0.98,5.64l-3.91-0.68l2.81-16.17l3.91,0.68L81.08,251.76z"/>
		<path class="st7" d="M119.77,236.43l-17.09,2.28c-0.39,0.04-0.78,0.09-1.19,0.13c-0.4,0.04-0.76,0.08-1.09,0.11
			c-0.35,0.02-0.72,0.04-1.1,0.06l-0.03,0.09l18.19,5.27l-1.34,4.63l-35.08-10.16c-0.25-0.85-0.38-1.95-0.39-3.28
			c-0.01-1.33,0.2-2.7,0.61-4.12c0.5-1.73,1.19-3.15,2.05-4.24c0.86-1.09,1.87-1.91,3.01-2.44c1.14-0.53,2.4-0.8,3.78-0.81
			c1.38-0.01,2.83,0.21,4.36,0.65c1.41,0.41,2.58,1.01,3.49,1.81c0.91,0.8,1.64,1.66,2.19,2.58c0.55,0.93,0.91,1.87,1.1,2.83
			s0.27,1.82,0.24,2.56l19.79-3.19L119.77,236.43z M93.44,229.46c-2.28-0.66-4.13-0.79-5.54-0.39c-1.42,0.4-2.38,1.5-2.9,3.29
			c-0.14,0.49-0.24,0.96-0.29,1.4c-0.05,0.44-0.05,0.81-0.01,1.1l13.3,3.85c0.1-0.13,0.18-0.29,0.23-0.47
			c0.05-0.19,0.11-0.4,0.18-0.63c0.55-1.91,0.43-3.58-0.38-5.01C97.22,231.16,95.69,230.12,93.44,229.46z"/>
		<path class="st7" d="M112.39,203.65c2.82,1.21,5.27,2.46,7.35,3.74c2.08,1.29,3.72,2.62,4.93,4.01c1.2,1.38,1.96,2.82,2.27,4.31
			c0.31,1.49,0.11,3.05-0.59,4.68c-0.7,1.63-1.7,2.85-2.99,3.65c-1.29,0.8-2.86,1.24-4.69,1.32c-1.83,0.08-3.93-0.19-6.3-0.82
			c-2.37-0.62-4.96-1.54-7.77-2.75c-2.82-1.21-5.27-2.46-7.35-3.74c-2.08-1.29-3.72-2.62-4.93-4.01c-1.2-1.38-1.96-2.82-2.27-4.31
			c-0.31-1.49-0.11-3.05,0.59-4.68c0.7-1.63,1.7-2.85,2.99-3.65c1.29-0.8,2.86-1.24,4.69-1.32c1.83-0.08,3.93,0.19,6.3,0.82
			C106.99,201.52,109.58,202.44,112.39,203.65z M110.28,208.24c-4.83-2.08-8.54-3.27-11.12-3.57c-2.58-0.31-4.22,0.34-4.91,1.94
			c-0.69,1.6-0.03,3.23,1.97,4.89c2,1.66,5.42,3.53,10.25,5.6c4.83,2.08,8.53,3.26,11.1,3.57c2.57,0.3,4.2-0.35,4.89-1.95
			c0.69-1.6,0.04-3.23-1.95-4.89C118.52,212.18,115.11,210.31,110.28,208.24z"/>
		<path class="st7" d="M131.09,172.81c2.45,1.63,4.55,3.3,6.29,5c1.74,1.7,3.05,3.42,3.94,5.14c0.89,1.73,1.31,3.45,1.28,5.16
			c-0.04,1.71-0.61,3.39-1.71,5.04c-1,1.5-1.99,2.64-2.98,3.41c-0.98,0.77-1.82,1.29-2.5,1.56l-29.27-19.5
			c0-0.76,0.16-1.74,0.48-2.96c0.32-1.21,0.97-2.56,1.96-4.03c1.1-1.65,2.43-2.83,3.98-3.53c1.55-0.7,3.28-0.98,5.2-0.85
			c1.91,0.14,3.99,0.68,6.23,1.63S128.59,171.14,131.09,172.81z M128.28,176.95c-2.28-1.52-4.31-2.7-6.09-3.54
			c-1.78-0.85-3.34-1.38-4.68-1.6c-1.33-0.22-2.46-0.17-3.38,0.16c-0.92,0.33-1.66,0.9-2.21,1.73c-0.32,0.48-0.55,0.9-0.71,1.26
			c-0.15,0.37-0.26,0.7-0.31,0.99l24.88,16.58c0.21-0.15,0.47-0.38,0.78-0.68c0.31-0.3,0.61-0.68,0.91-1.13
			c1.13-1.7,0.99-3.68-0.43-5.95C135.63,182.5,132.7,179.9,128.28,176.95z"/>
		<path class="st7" d="M149.45,180.24l-29.03-24.33l8.25-9.85l3.04,2.55l-5.1,6.08l9.61,8.05l4.55-5.43l3.04,2.55l-4.55,5.43
			l10.19,8.54l5.1-6.08l3.14,2.64L149.45,180.24z"/>
		<path class="st7" d="M148.97,131.52l8.29,9.4l5.31-4.68l2.63,2.97l-5.31,4.68l11.52,13.05l-3.68,3.25l-25.06-28.4l9.63-8.5
			l2.63,2.97L148.97,131.52z"/>
		<path class="st7" d="M185,122.77c1.76,2.51,3.19,4.86,4.29,7.04c1.1,2.19,1.79,4.19,2.09,6c0.3,1.81,0.19,3.43-0.33,4.86
			c-0.52,1.43-1.51,2.65-2.96,3.67c-1.45,1.02-2.94,1.53-4.46,1.53c-1.52,0-3.08-0.44-4.69-1.34c-1.6-0.89-3.25-2.23-4.93-4
			c-1.69-1.77-3.41-3.91-5.17-6.42c-1.76-2.51-3.19-4.86-4.29-7.04c-1.1-2.19-1.79-4.19-2.09-6c-0.3-1.81-0.19-3.43,0.33-4.86
			c0.52-1.43,1.5-2.65,2.96-3.67c1.45-1.02,2.94-1.53,4.46-1.53c1.52,0,3.08,0.44,4.69,1.34c1.6,0.9,3.25,2.23,4.93,4
			C181.51,118.12,183.23,120.26,185,122.77z M180.79,125.56c-3.02-4.3-5.55-7.27-7.59-8.88c-2.04-1.62-3.77-1.93-5.2-0.92
			c-1.43,1-1.72,2.74-0.89,5.2c0.83,2.47,2.76,5.85,5.78,10.15c3.02,4.3,5.55,7.26,7.58,8.87c2.03,1.61,3.75,1.91,5.18,0.91
			c1.43-1,1.73-2.73,0.91-5.18C185.73,133.24,183.81,129.86,180.79,125.56z"/>
		<path class="st7" d="M210.8,130.16l-13.54-10.68c-0.3-0.25-0.61-0.5-0.92-0.76c-0.31-0.26-0.59-0.5-0.83-0.71
			c-0.26-0.24-0.53-0.48-0.81-0.75l-0.08,0.04l8.89,16.72l-4.26,2.26l-17.14-32.25c0.44-0.78,1.13-1.63,2.08-2.56
			c0.95-0.93,2.08-1.74,3.38-2.43c1.59-0.85,3.08-1.34,4.47-1.48c1.39-0.14,2.67,0.01,3.84,0.46c1.17,0.45,2.24,1.16,3.21,2.15
			c0.97,0.99,1.82,2.18,2.57,3.59c0.69,1.3,1.07,2.56,1.13,3.76c0.06,1.21-0.05,2.33-0.33,3.37c-0.28,1.04-0.71,1.96-1.26,2.76
			c-0.56,0.81-1.11,1.46-1.67,1.96l16.07,11.98L210.8,130.16z M197.47,106.41c-1.11-2.1-2.31-3.51-3.58-4.25
			c-1.28-0.73-2.74-0.66-4.38,0.21c-0.45,0.24-0.85,0.5-1.2,0.77c-0.35,0.27-0.62,0.52-0.8,0.76l6.5,12.22
			c0.16-0.02,0.33-0.07,0.5-0.16c0.17-0.09,0.36-0.19,0.58-0.31c1.75-0.93,2.86-2.19,3.34-3.76
			C198.88,110.31,198.57,108.48,197.47,106.41z"/>
		<path class="st7" d="M239.23,118.75l-10.36-23.3c-0.26-0.55-0.5-1.08-0.72-1.61c-0.22-0.53-0.41-1.02-0.57-1.47
			c-0.21-0.5-0.39-0.99-0.53-1.49l-0.09,0.03l0.32,1.56c0.1,0.47,0.21,0.99,0.32,1.56c0.11,0.57,0.2,1.16,0.29,1.76l3.82,25.63
			l-3.02,1.07l-13.29-22.26c-0.32-0.53-0.61-1.04-0.89-1.55c-0.28-0.51-0.52-0.98-0.74-1.41l-0.74-1.41l-0.08,0.03
			c0.14,0.49,0.31,0.99,0.49,1.5c0.13,0.46,0.3,0.96,0.49,1.5c0.19,0.54,0.36,1.1,0.51,1.69l6.71,24.6l-4.29,1.53l-9.06-36.98
			l4.63-1.65l12.64,20.96c0.29,0.47,0.57,0.96,0.84,1.47c0.26,0.51,0.5,0.97,0.71,1.38c0.24,0.49,0.47,0.95,0.68,1.38l0.09-0.03
			c-0.13-0.46-0.25-0.96-0.34-1.5c-0.09-0.44-0.2-0.95-0.32-1.51c-0.12-0.56-0.22-1.12-0.28-1.67l-3.47-24.23l4.63-1.65l16.37,34.37
			L239.23,118.75z"/>
		<path class="st7" d="M261.28,113.82l-3.23-7.95l-8.36,1.66l0.05,8.59l-4.64,0.92l0.64-38.74l5.26-1.04l15.37,35.56L261.28,113.82z
			 M250.97,88.24c-0.23-0.57-0.45-1.14-0.64-1.71c-0.19-0.57-0.37-1.11-0.52-1.6c-0.2-0.54-0.37-1.09-0.51-1.65l-0.09,0.02
			c0.08,0.57,0.13,1.14,0.16,1.72c0.04,0.51,0.07,1.07,0.1,1.68c0.03,0.61,0.04,1.22,0.04,1.83l0.05,15.34l7.21-1.43L250.97,88.24z"
			/>
		<path class="st7" d="M283.82,110.05c-0.41,0.49-1.03,0.96-1.85,1.43c-0.82,0.46-1.86,0.75-3.12,0.85c-3.53,0.3-6.33-1.12-8.4-4.26
			c-2.06-3.14-3.37-7.87-3.91-14.19c-0.54-6.32-0.06-11.2,1.44-14.65c1.5-3.45,4.02-5.32,7.55-5.62c1.2-0.1,2.26,0,3.17,0.32
			c0.92,0.31,1.62,0.68,2.11,1.09l-0.87,3.6c-0.39-0.27-0.89-0.48-1.53-0.64c-0.63-0.16-1.25-0.21-1.85-0.16
			c-2.1,0.18-3.55,1.56-4.37,4.15c-0.82,2.59-1.02,6.37-0.59,11.34c0.42,4.94,1.26,8.63,2.51,11.05s2.92,3.55,5.02,3.37
			c0.69-0.06,1.31-0.22,1.86-0.48c0.55-0.26,0.99-0.55,1.33-0.88L283.82,110.05z"/>
		<path class="st7" d="M287.49,111.47l-0.22-37.87l4.91-0.03l0.22,37.87L287.49,111.47z"/>
		<path class="st7" d="M318,94.12c-0.27,3.05-0.68,5.77-1.25,8.15c-0.57,2.38-1.32,4.36-2.26,5.94c-0.94,1.58-2.07,2.75-3.38,3.51
			s-2.86,1.06-4.63,0.91c-1.77-0.15-3.23-0.72-4.4-1.7c-1.17-0.98-2.08-2.32-2.73-4.04c-0.65-1.72-1.05-3.8-1.2-6.24
			c-0.15-2.44-0.09-5.19,0.18-8.24c0.27-3.05,0.68-5.77,1.25-8.15c0.57-2.38,1.32-4.36,2.26-5.94c0.94-1.58,2.06-2.75,3.38-3.51
			c1.32-0.76,2.86-1.06,4.63-0.91c1.77,0.15,3.23,0.72,4.4,1.7c1.17,0.98,2.08,2.32,2.73,4.04c0.65,1.72,1.05,3.8,1.2,6.24
			C318.33,88.31,318.27,91.06,318,94.12z M312.98,93.54c0.46-5.24,0.43-9.13-0.09-11.68c-0.52-2.55-1.64-3.9-3.38-4.05
			c-1.74-0.15-3.08,0.98-4.03,3.41c-0.95,2.42-1.65,6.25-2.11,11.49s-0.43,9.13,0.09,11.66c0.52,2.53,1.65,3.88,3.38,4.03
			c1.74,0.15,3.08-0.98,4.03-3.38C311.82,102.61,312.53,98.78,312.98,93.54z M310.68,71.66l-2.29-0.2l2.95-5.85
			c0.86-0.5,1.72-0.71,2.59-0.63c0.45,0.04,0.84,0.15,1.17,0.33c0.33,0.18,0.56,0.41,0.69,0.69L310.68,71.66z"/>
		<path class="st7" d="M335.12,116.9l-4.17-26.79c-0.1-0.51-0.17-1.02-0.22-1.53c-0.04-0.5-0.08-0.96-0.11-1.36
			c-0.02-0.47-0.06-0.92-0.11-1.36l-0.09-0.02c-0.09,0.41-0.17,0.85-0.25,1.33c-0.09,0.41-0.18,0.85-0.27,1.33
			c-0.09,0.47-0.19,0.94-0.29,1.41l-5.45,24.56l-4.01-0.89l8.2-36.97l4.4,0.98l3.94,25.54c0.07,0.51,0.13,1.01,0.18,1.49
			c0.05,0.49,0.1,0.94,0.16,1.35c0.02,0.47,0.06,0.92,0.11,1.36l0.09,0.02c0.06-0.42,0.14-0.86,0.25-1.33
			c0.05-0.39,0.13-0.82,0.24-1.29c0.1-0.47,0.21-0.94,0.31-1.41l5.19-23.42l4.01,0.89l-8.2,36.97L335.12,116.9z"/>
		<path class="st7" d="M353.19,122.56l14.25-35.09l4.55,1.85l-12.71,31.29l6.81,2.77l-1.54,3.8L353.19,122.56z"/>
		<path class="st7" d="M380.16,135.22l2.54-8.2l-7.52-4.02l-5.41,6.67l-4.18-2.23l25.05-29.56l4.73,2.53l-10.65,37.25L380.16,135.22
			z M388.4,108.9c0.18-0.59,0.37-1.16,0.59-1.73c0.22-0.57,0.42-1.09,0.61-1.57c0.19-0.55,0.41-1.08,0.65-1.6l-0.08-0.04
			c-0.3,0.49-0.62,0.97-0.97,1.43c-0.29,0.42-0.62,0.88-0.98,1.36c-0.36,0.49-0.74,0.97-1.13,1.44l-9.68,11.9l6.48,3.46L388.4,108.9
			z"/>
		<path class="st7" d="M407.39,140.93c-2.11,3-4.41,4.71-6.92,5.12c-2.51,0.41-5.1-0.33-7.78-2.21c-1.33-0.93-2.45-1.94-3.35-3.04
			c-0.9-1.09-1.5-2.03-1.79-2.83l20.19-28.79c0.82,0.03,1.88,0.26,3.18,0.69c1.29,0.43,2.61,1.11,3.94,2.04
			c2.78,1.95,4.33,4.13,4.66,6.55c0.33,2.41-0.45,4.96-2.33,7.64c-0.67,0.96-1.42,1.73-2.25,2.3c-0.83,0.58-1.65,1.01-2.48,1.29
			c-0.82,0.29-1.62,0.45-2.38,0.48c-0.76,0.04-1.42-0.01-1.99-0.15l-0.05,0.07c0.31,0.44,0.61,1.03,0.89,1.75
			c0.28,0.73,0.44,1.57,0.49,2.52c0.05,0.95-0.07,1.98-0.35,3.09C408.8,138.57,408.23,139.73,407.39,140.93z M403.51,137.83
			c2.76-3.94,2.3-7.2-1.39-9.79l-1.22-0.85l-7.95,11.33c0.15,0.25,0.38,0.55,0.69,0.9c0.31,0.35,0.71,0.69,1.2,1.04
			c1.4,0.98,2.84,1.31,4.3,0.98C400.6,141.1,402.06,139.9,403.51,137.83z M413.08,123.39c1.31-1.87,1.94-3.47,1.89-4.81
			c-0.05-1.34-0.84-2.54-2.37-3.61c-0.42-0.29-0.83-0.54-1.25-0.74c-0.41-0.2-0.79-0.32-1.12-0.37l-7.51,10.7l1.18,0.83
			C407.38,127.83,410.44,127.16,413.08,123.39z"/>
		<path class="st7" d="M431.11,150.38c-2.06,2.27-4.03,4.19-5.92,5.74c-1.89,1.55-3.69,2.68-5.38,3.37c-1.7,0.69-3.3,0.94-4.81,0.75
			c-1.51-0.19-2.92-0.88-4.24-2.07c-1.32-1.19-2.14-2.53-2.49-4.01c-0.34-1.48-0.25-3.1,0.26-4.87c0.52-1.76,1.45-3.66,2.81-5.7
			c1.35-2.04,3.06-4.19,5.12-6.47c2.06-2.27,4.03-4.19,5.92-5.74c1.89-1.55,3.68-2.68,5.38-3.37c1.7-0.69,3.3-0.94,4.81-0.75
			c1.51,0.19,2.92,0.88,4.24,2.07c1.32,1.19,2.14,2.52,2.49,4.01c0.34,1.48,0.25,3.1-0.26,4.87c-0.52,1.76-1.45,3.66-2.81,5.7
			C434.87,145.95,433.16,148.11,431.11,150.38z M427.45,146.89c3.53-3.9,5.85-7.03,6.98-9.37c1.13-2.35,1.04-4.1-0.25-5.27
			c-1.29-1.17-3.05-1.08-5.27,0.28c-2.22,1.36-5.09,3.99-8.62,7.89c-3.53,3.9-5.85,7.02-6.96,9.35c-1.12,2.33-1.03,4.09,0.27,5.25
			s3.04,1.08,5.25-0.26C421.05,153.42,423.92,150.8,427.45,146.89z"/>
		<path class="st7" d="M429.63,177.19l7.39-15.57c0.17-0.35,0.35-0.7,0.54-1.06c0.19-0.36,0.35-0.68,0.5-0.97
			c0.17-0.31,0.35-0.62,0.55-0.95l-0.06-0.07l-14.32,12.39l-3.16-3.65l27.62-23.89c0.85,0.25,1.84,0.74,2.96,1.46
			c1.12,0.72,2.16,1.64,3.13,2.75c1.18,1.36,1.99,2.71,2.44,4.03c0.45,1.32,0.58,2.6,0.41,3.85c-0.18,1.24-0.64,2.45-1.38,3.61
			c-0.75,1.16-1.72,2.26-2.92,3.3c-1.11,0.96-2.25,1.61-3.42,1.94c-1.16,0.33-2.28,0.47-3.36,0.43c-1.07-0.05-2.07-0.25-2.98-0.62
			c-0.91-0.37-1.67-0.76-2.28-1.19l-8.11,18.34L429.63,177.19z M449.82,158.89c1.8-1.55,2.91-3.03,3.34-4.44
			c0.43-1.41,0.04-2.82-1.18-4.22c-0.33-0.39-0.67-0.72-1.01-1c-0.34-0.28-0.65-0.48-0.91-0.61l-10.47,9.05
			c0.05,0.15,0.14,0.3,0.27,0.45c0.13,0.15,0.27,0.31,0.43,0.49c1.3,1.5,2.77,2.3,4.41,2.41
			C446.34,161.14,448.05,160.43,449.82,158.89z"/>
		<path class="st7" d="M442.82,195.47l6.09-6.05l-4.76-7.07l-7.9,3.36l-2.64-3.93l35.98-14.37l3,4.45l-26.87,27.91L442.82,195.47z
			 M462.44,176.08c0.43-0.43,0.88-0.85,1.33-1.25c0.46-0.4,0.88-0.76,1.27-1.1c0.42-0.39,0.86-0.76,1.32-1.11l-0.05-0.07
			c-0.49,0.29-1,0.56-1.52,0.81c-0.46,0.24-0.96,0.48-1.51,0.74c-0.55,0.26-1.11,0.51-1.67,0.74l-14.13,5.98l4.1,6.1L462.44,176.08z
			"/>
		<path class="st7" d="M446.86,202.25l33.48-17.71l2.3,4.34l-29.85,15.79l3.44,6.5l-3.63,1.92L446.86,202.25z"/>
		<path class="st7" d="M462.82,239.79l20.88-17.29c0.39-0.35,0.79-0.67,1.2-0.97c0.41-0.29,0.78-0.56,1.11-0.79
			c0.39-0.26,0.76-0.52,1.11-0.8l-0.03-0.09c-0.4,0.13-0.82,0.29-1.27,0.47c-0.4,0.13-0.83,0.28-1.28,0.45
			c-0.45,0.16-0.91,0.32-1.36,0.47l-23.89,7.88l-1.29-3.9l35.97-11.87l1.41,4.28l-19.93,16.45c-0.4,0.32-0.8,0.63-1.19,0.92
			c-0.4,0.29-0.76,0.57-1.08,0.83c-0.39,0.25-0.76,0.52-1.11,0.8l0.03,0.09c0.39-0.16,0.81-0.32,1.27-0.47
			c0.36-0.15,0.77-0.3,1.23-0.45c0.46-0.15,0.91-0.3,1.37-0.45l22.78-7.52l1.29,3.9l-35.97,11.87L462.82,239.79z"/>
		<path class="st7" d="M494.62,258.09c-3.51,0.7-6.37,0.6-8.59-0.3c-2.22-0.9-3.6-2.73-4.15-5.47c-0.55-2.74,0.03-4.96,1.73-6.65
			c1.7-1.69,4.3-2.89,7.81-3.59c3.48-0.7,6.33-0.59,8.57,0.31c2.23,0.9,3.63,2.72,4.18,5.46c0.55,2.74-0.03,4.96-1.75,6.65
			C500.69,256.2,498.1,257.39,494.62,258.09z M493.81,253.6c2.56-0.51,4.51-1.18,5.85-2c1.34-0.82,1.88-1.88,1.62-3.17
			c-0.26-1.3-1.17-2.07-2.72-2.31c-1.55-0.24-3.61-0.1-6.17,0.41c-2.56,0.51-4.52,1.18-5.85,2c-1.34,0.82-1.88,1.88-1.62,3.17
			c0.26,1.3,1.16,2.07,2.72,2.31C489.19,254.25,491.25,254.12,493.81,253.6z"/>
		<path class="st7" d="M478.32,281.13l-8.31,0.73l-0.4-4.58l8.31-0.73l-0.95-10.82l3.73-0.33l26.64,8.62l0.4,4.54l-25.69,2.25
			l0.2,2.29l-3.73,0.33L478.32,281.13z M500.44,274.75c-0.43-0.11-0.88-0.21-1.34-0.29c-0.4-0.12-0.83-0.23-1.3-0.34
			c-0.46-0.11-0.91-0.24-1.35-0.38l-15.47-5.07l0.68,7.73l14.73-1.29c0.42-0.04,0.87-0.08,1.35-0.12c0.48-0.04,0.93-0.07,1.35-0.07
			c0.48-0.04,0.93-0.07,1.35-0.07L500.44,274.75z"/>
		<path class="st7" d="M488.73,305.42c-6.22-0.17-10.99-0.99-14.32-2.45c-3.33-1.46-4.95-3.77-4.86-6.92
			c0.09-3.15,1.83-5.37,5.24-6.64c3.4-1.27,8.22-1.82,14.43-1.65c6.22,0.17,10.99,0.99,14.32,2.45c3.33,1.46,4.95,3.77,4.86,6.92
			c-0.09,3.15-1.83,5.37-5.24,6.64C499.76,305.04,494.95,305.59,488.73,305.42z M489,300.69c5.26,0.15,9.14-0.06,11.65-0.61
			c2.51-0.55,3.79-1.57,3.83-3.06c0.04-1.49-1.18-2.58-3.65-3.27c-2.48-0.69-6.34-1.11-11.6-1.26c-5.26-0.15-9.14,0.06-11.65,0.61
			c-2.51,0.55-3.79,1.57-3.83,3.06c-0.04,1.49,1.18,2.58,3.65,3.27C479.88,300.12,483.74,300.54,489,300.69z"/>
		<path class="st7" d="M475.57,324.42l-8.25-1.2l0.66-4.55l8.25,1.2l1.56-10.75l3.7,0.54l23.95,14.51l-0.66,4.51l-25.52-3.71
			l-0.33,2.28l-3.7-0.54L475.57,324.42z M498.56,323.3c-0.39-0.21-0.81-0.41-1.24-0.59c-0.37-0.21-0.76-0.41-1.18-0.63
			c-0.42-0.21-0.83-0.44-1.22-0.68l-13.89-8.49l-1.12,7.67l14.63,2.13c0.42,0.06,0.86,0.13,1.34,0.19c0.48,0.07,0.92,0.15,1.33,0.24
			c0.48,0.07,0.92,0.15,1.33,0.24L498.56,323.3z"/>
	</g>
	<g>
		<path class="st7" d="M237.04,489.41c-1.14,3.5-2.86,5.81-5.14,6.94c-2.29,1.13-4.99,1.18-8.12,0.16c-1.55-0.5-2.92-1.15-4.1-1.93
			c-1.19-0.78-2.04-1.51-2.55-2.19l10.95-33.55c0.8-0.22,1.88-0.31,3.25-0.27c1.37,0.03,2.83,0.3,4.38,0.81
			c3.24,1.06,5.37,2.7,6.39,4.92c1.02,2.22,1.02,4.89,0,8.02c-0.37,1.12-0.86,2.07-1.48,2.87c-0.62,0.8-1.29,1.45-2,1.97
			c-0.71,0.52-1.42,0.9-2.14,1.16c-0.72,0.26-1.37,0.4-1.95,0.43l-0.03,0.09c0.43,0.33,0.89,0.81,1.37,1.42
			c0.48,0.62,0.88,1.38,1.21,2.27c0.33,0.9,0.52,1.92,0.57,3.07C237.7,486.73,237.5,488,237.04,489.41z M232.41,487.56
			c1.5-4.59,0.09-7.58-4.21-8.99l-1.42-0.46l-4.31,13.2c0.22,0.2,0.53,0.42,0.93,0.66c0.4,0.24,0.88,0.45,1.46,0.64
			c1.63,0.53,3.1,0.43,4.41-0.32C230.58,491.55,231.63,489.97,232.41,487.56z M237.37,470.91c0.71-2.18,0.85-3.9,0.4-5.17
			c-0.44-1.27-1.55-2.2-3.33-2.78c-0.49-0.16-0.96-0.27-1.41-0.34c-0.45-0.07-0.85-0.08-1.18-0.03l-4.07,12.47l1.38,0.45
			C233.2,476.83,235.94,475.29,237.37,470.91z"/>
		<path class="st7" d="M242.76,501.4l7.53-37.25l12.64,2.55l-0.79,3.9l-7.8-1.58l-2.49,12.33l6.96,1.41l-0.79,3.9l-6.96-1.41
			l-2.64,13.08l7.81,1.58l-0.82,4.04L242.76,501.4z"/>
		<path class="st7" d="M277.76,506.49l-5.6-16.37c-0.12-0.37-0.24-0.75-0.36-1.14c-0.12-0.39-0.23-0.74-0.32-1.05
			c-0.09-0.34-0.18-0.7-0.27-1.07l-0.09-0.01l-1.62,18.93l-4.82-0.41l3.12-36.51c0.79-0.42,1.84-0.76,3.15-1.03
			c1.31-0.27,2.7-0.34,4.17-0.21c1.8,0.15,3.33,0.55,4.58,1.18c1.25,0.64,2.24,1.46,2.99,2.48c0.75,1.02,1.26,2.2,1.54,3.56
			c0.28,1.36,0.35,2.83,0.21,4.42c-0.13,1.47-0.49,2.74-1.1,3.79c-0.61,1.05-1.31,1.94-2.11,2.66c-0.8,0.72-1.66,1.27-2.57,1.64
			c-0.91,0.38-1.73,0.62-2.47,0.74l7.02,18.85L277.76,506.49z M279.46,479.21c0.2-2.37-0.03-4.22-0.71-5.53
			c-0.68-1.31-1.94-2.05-3.81-2.21c-0.51-0.04-0.99-0.05-1.43-0.01c-0.44,0.04-0.8,0.11-1.08,0.2l-1.18,13.84
			c0.14,0.07,0.31,0.12,0.51,0.13c0.2,0.02,0.41,0.04,0.65,0.06c1.98,0.17,3.6-0.28,4.86-1.36
			C278.53,483.26,279.26,481.56,279.46,479.21z"/>
		<path class="st7" d="M290.85,506.9l-0.62-38l4.93-0.08l0.62,38L290.85,506.9z"/>
		<path class="st7" d="M316.74,496.1c0.12,1.41,0.01,2.74-0.34,3.98c-0.35,1.24-0.88,2.33-1.61,3.27c-0.72,0.94-1.62,1.71-2.69,2.3
			c-1.07,0.59-2.28,0.94-3.63,1.06c-1.38,0.12-2.66,0.04-3.83-0.24c-1.17-0.28-2.08-0.63-2.72-1.06l0.98-3.99
			c0.45,0.3,1.08,0.54,1.9,0.75c0.82,0.2,1.66,0.27,2.54,0.19c0.75-0.06,1.41-0.27,1.99-0.62c0.58-0.35,1.05-0.8,1.43-1.35
			c0.38-0.55,0.64-1.15,0.8-1.82c0.16-0.66,0.2-1.34,0.14-2.03c-0.12-1.38-0.47-2.56-1.05-3.54c-0.58-0.98-1.29-1.87-2.11-2.68
			c-0.83-0.81-1.71-1.59-2.65-2.36c-0.94-0.77-1.83-1.62-2.67-2.57c-0.84-0.94-1.56-2.04-2.16-3.29c-0.61-1.25-0.98-2.76-1.13-4.53
			c-0.12-1.44-0.01-2.75,0.35-3.93c0.35-1.18,0.89-2.2,1.62-3.07c0.73-0.86,1.62-1.55,2.69-2.04c1.06-0.5,2.24-0.8,3.53-0.91
			c1.35-0.11,2.56-0.02,3.63,0.28c1.07,0.3,1.88,0.66,2.43,1.06l-0.83,3.61c-0.42-0.28-1.02-0.52-1.81-0.72
			c-0.79-0.2-1.6-0.26-2.45-0.19c-1.44,0.12-2.55,0.7-3.33,1.74c-0.77,1.04-1.1,2.28-0.98,3.72c0.12,1.38,0.47,2.56,1.07,3.52
			c0.6,0.97,1.31,1.85,2.13,2.66c0.82,0.81,1.72,1.6,2.7,2.36s1.88,1.63,2.72,2.59c0.84,0.96,1.57,2.06,2.19,3.32
			C316.2,492.81,316.59,494.33,316.74,496.1z"/>
		<path class="st7" d="M338.13,492.33c0.27,1.39,0.3,2.73,0.08,4c-0.22,1.27-0.63,2.41-1.25,3.42c-0.62,1.01-1.43,1.87-2.43,2.57
			c-1,0.7-2.17,1.18-3.5,1.44c-1.36,0.26-2.64,0.32-3.84,0.16c-1.2-0.15-2.14-0.41-2.82-0.77l0.55-4.07
			c0.48,0.25,1.13,0.43,1.97,0.54c0.84,0.12,1.68,0.09,2.54-0.08c0.74-0.14,1.38-0.42,1.91-0.83c0.53-0.41,0.96-0.91,1.28-1.49
			c0.32-0.58,0.52-1.21,0.6-1.89c0.08-0.68,0.06-1.36-0.07-2.04c-0.26-1.36-0.74-2.5-1.42-3.41c-0.68-0.91-1.48-1.73-2.38-2.44
			c-0.91-0.72-1.87-1.41-2.89-2.07c-1.02-0.66-1.99-1.42-2.93-2.27c-0.93-0.85-1.76-1.86-2.5-3.04c-0.73-1.18-1.27-2.64-1.61-4.39
			c-0.27-1.42-0.3-2.74-0.07-3.95c0.23-1.21,0.66-2.28,1.29-3.22c0.63-0.94,1.45-1.71,2.46-2.32c1-0.61,2.14-1.03,3.42-1.28
			c1.33-0.26,2.55-0.29,3.64-0.1c1.1,0.19,1.94,0.46,2.53,0.8l-0.44,3.68c-0.44-0.23-1.07-0.41-1.87-0.52s-1.62-0.09-2.45,0.07
			c-1.42,0.27-2.46,0.97-3.12,2.08c-0.66,1.11-0.85,2.38-0.58,3.8c0.26,1.36,0.74,2.49,1.44,3.39c0.7,0.9,1.5,1.7,2.4,2.42
			c0.91,0.72,1.88,1.4,2.93,2.06c1.05,0.66,2.04,1.42,2.98,2.29c0.93,0.87,1.78,1.89,2.53,3.07
			C337.25,489.11,337.79,490.58,338.13,492.33z"/>
		<path class="st7" d="M361.37,475.31c0.95,2.93,1.62,5.6,2.03,8.02c0.4,2.42,0.48,4.54,0.23,6.37c-0.25,1.82-0.83,3.35-1.76,4.56
			c-0.92,1.22-2.23,2.1-3.92,2.65c-1.69,0.55-3.27,0.6-4.73,0.15c-1.46-0.45-2.83-1.33-4.1-2.67c-1.27-1.33-2.45-3.1-3.55-5.29
			c-1.09-2.2-2.11-4.76-3.06-7.69c-0.95-2.93-1.62-5.6-2.03-8.02c-0.4-2.42-0.48-4.54-0.23-6.37c0.25-1.82,0.83-3.35,1.76-4.56
			c0.92-1.22,2.23-2.1,3.92-2.65c1.69-0.55,3.27-0.6,4.73-0.15c1.46,0.45,2.83,1.34,4.1,2.67c1.27,1.33,2.45,3.1,3.55,5.29
			C359.4,469.82,360.42,472.39,361.37,475.31z M356.51,476.75c-1.63-5.02-3.18-8.61-4.65-10.76c-1.48-2.15-3.04-2.96-4.71-2.42
			c-1.66,0.54-2.46,2.11-2.39,4.72c0.07,2.61,0.92,6.42,2.54,11.45c1.63,5.02,3.18,8.6,4.65,10.74c1.47,2.14,3.04,2.94,4.7,2.4
			c1.66-0.54,2.46-2.11,2.4-4.7C358.98,485.57,358.13,481.77,356.51,476.75z"/>
	</g>
	<circle class="st8" cx="203.17" cy="466.49" r="5.4"/>
	<circle class="st8" cx="378.19" cy="468.78" r="5.4"/>
	<circle class="st8" cx="101.65" cy="349.61" r="5.4"/>
	<circle class="st8" cx="480.39" cy="348.85" r="5.4"/>
</g>
</svg>
